<?xml version="1.0" encoding="UTF-8" standalone="no"?><svg width="3871" height="669" viewBox="0 0 3871 669" fill="none" xmlns="http://www.w3.org/2000/svg">
<path d="M267.412 206.607C264.945 192.744 269.92 176.425 266.714 160.356C265.232 152.927 259.106 149.843 252.28 149.252C245.904 148.7 239.402 154.635 238.213 162.448C236.85 171.409 236.065 180.559 236.142 189.617C236.273 204.785 237.272 219.945 237.94 235.108C238.169 240.313 238.054 245.588 238.886 250.704C240.369 259.833 245.08 263.755 253.721 263.983C262.828 264.224 267.378 261.149 269.001 251.593C271.388 237.54 265.214 223.463 267.412 206.607ZM441.709 190.119C441.696 190.029 441.709 190.209 441.709 190.119C444.63 209.907 443.728 221.98 447.173 240.649C448.538 248.048 453.756 252.744 461.848 253.157C469.42 253.545 475.849 249.576 478.653 241.427C480.601 235.764 481.721 229.648 482.142 223.66C483.71 201.412 482.412 179.415 473.476 158.577C470.81 152.364 466.652 147.681 458.656 148.079C450.557 148.483 445.278 152.752 443.089 159.788C440.685 167.516 441.618 177.624 441.709 190.119ZM342.241 582.843C352.253 582.053 363.082 581.069 373.93 580.369C409.573 578.071 443.208 568.195 475.041 552.484C517.114 531.719 552.409 502.288 581.009 465.176C619.83 414.803 643.581 358.06 650.158 294.597C650.944 287.023 649.533 278.889 647.506 271.46C645.901 265.575 641.44 261.047 634.194 260.695C626.973 260.344 622.441 263.984 620.145 270.143C617.733 276.612 615.761 283.339 614.473 290.12C607.304 327.865 597.504 364.703 578.152 398.332C550.225 446.861 513.865 487.141 463.492 513.104C411.59 539.855 356.604 547.643 298.898 539.052C252.914 532.207 212.584 513.693 176.936 484.059C150.836 462.363 133.681 434.348 118.636 404.657C116.673 400.784 115.125 396.337 112.128 393.468C109.704 391.148 104.921 389.211 102.052 390.053C99.4411 390.82 96.4558 395.504 96.3451 398.559C96.0811 405.864 96.4504 413.473 98.2638 420.523C107.226 455.359 127.481 483.708 152.965 507.913C205.557 557.868 269.624 580.173 342.241 582.843ZM305.358 668.845C245.638 668.521 203.794 660.829 166.558 635.915C138.257 616.98 114.888 592.78 96.7998 564.315C76.9998 533.153 59.4571 500.548 41.2304 468.403C32.8651 453.651 25.9091 438.071 17.0904 423.613C1.57975 398.185 -1.77891 370.348 0.771752 341.825C4.91442 295.509 19.5184 251.911 37.5318 209.225C43.8611 194.229 53.4558 182.536 65.0224 171.791C102.718 136.773 141.388 102.933 184.778 75.0146C229.6 46.1759 276.552 22.1852 328.833 9.23456C404.954 -9.62144 476.88 0.0812378 543.28 41.2706C609.17 82.1452 659.642 137.76 691.561 209.064C706.61 242.683 714.609 278.043 717.18 314.924C722.249 387.637 704.742 454.532 667.857 516.855C645.972 553.833 613.234 578.438 575.616 597.226C516.925 626.536 455.238 647.319 390.582 658.259C357.218 663.904 323.368 666.668 305.358 668.845Z" fill="white"/>
<path d="M1067.6 186.6C1095.87 186.6 1117.6 192.733 1132.8 205C1148.27 217.267 1156 233.533 1156 253.8C1156 261.8 1154.8 270.2 1152.4 279C1144.93 305.667 1130.13 325.4 1108 338.2C1086.13 351 1058.4 357.4 1024.8 357.4H983.6L970 405.8C969.467 407.4 969.2 409.533 969.2 412.2C969.2 415.933 970 419 971.6 421.4C973.467 423.8 976.133 426.6 979.6 429.8C982.533 432.467 984.533 434.467 985.6 435.8C986.667 437.133 987.2 438.733 987.2 440.6C987.2 445.133 985.067 448.333 980.8 450.2C976.533 452.067 970.267 453 962 453H861.6C854.667 453 849.467 451.8 846 449.4C842.533 446.733 841.333 443.133 842.4 438.6C842.933 436.2 844 434.333 845.6 433C846.933 431.4 849.067 429.667 852 427.8C856.533 425.133 860.133 422.333 862.8 419.4C865.467 416.467 867.6 411.933 869.2 405.8L918 233.4C919.067 229.933 919.6 226.6 919.6 223.4C919.6 220.467 919.067 218.067 918 216.2C917.2 214.067 916 211.667 914.4 209C912 205.533 910.8 202.733 910.8 200.6C910.8 199.8 911.067 198.333 911.6 196.2C912.667 192.733 914.933 190.333 918.4 189C922.133 187.4 927.733 186.6 935.2 186.6H1067.6ZM1057.2 271.8C1060.13 261.933 1061.6 253.267 1061.6 245.8C1061.6 230.333 1054.4 222.6 1040 222.6H1022L993.6 321.4H1011.2C1022.4 321.4 1031.47 317.933 1038.4 311C1045.6 303.8 1051.87 290.733 1057.2 271.8ZM1313.45 241.4C1328.38 241.4 1340.25 245.933 1349.05 255C1358.11 264.067 1362.65 275.267 1362.65 288.6C1362.65 293.667 1362.11 298.333 1361.05 302.6C1358.38 313.533 1353.31 321.933 1345.85 327.8C1338.38 333.667 1329.45 336.6 1319.05 336.6C1308.91 336.6 1301.18 334.2 1295.85 329.4C1290.78 324.6 1286.25 318.2 1282.25 310.2C1280.11 305.667 1278.11 302.333 1276.25 300.2C1274.38 298.067 1272.25 297 1269.85 297C1267.18 297 1264.78 298.067 1262.65 300.2C1260.78 302.333 1259.05 306.067 1257.45 311.4L1226.65 411.4C1226.11 412.733 1225.85 414.733 1225.85 417.4C1225.85 420.867 1226.78 423.8 1228.65 426.2C1230.78 428.333 1233.58 430.467 1237.05 432.6C1240.25 434.733 1242.38 436.467 1243.45 437.8C1244.51 439.133 1244.91 440.867 1244.65 443C1244.11 446.467 1242.11 449 1238.65 450.6C1235.45 452.2 1229.85 453 1221.85 453H1119.45C1112.51 453 1107.58 451.933 1104.65 449.8C1101.45 447.4 1100.25 444.333 1101.05 440.6C1102.11 437.4 1104.91 434.6 1109.45 432.2C1113.45 430.067 1116.78 427.533 1119.45 424.6C1122.11 421.667 1124.38 417 1126.25 410.6L1161.85 295C1162.38 293.667 1162.65 291.8 1162.65 289.4C1162.65 286.467 1161.98 284.2 1160.65 282.6C1159.58 281 1157.71 279 1155.05 276.6C1152.38 274.467 1150.51 272.6 1149.45 271C1148.38 269.4 1148.25 267.267 1149.05 264.6C1150.65 258.467 1159.05 253.133 1174.25 248.6C1189.45 243.8 1205.31 241.4 1221.85 241.4C1232.78 241.4 1241.85 243.933 1249.05 249C1256.25 253.8 1260.91 260.733 1263.05 269.8C1275.85 250.867 1292.65 241.4 1313.45 241.4ZM1495.49 241.4C1531.75 241.4 1558.42 248.733 1575.49 263.4C1592.82 278.067 1601.49 297.267 1601.49 321C1601.49 329 1600.42 337.933 1598.29 347.8C1593.22 369.667 1583.75 388.867 1569.89 405.4C1556.02 421.667 1538.95 434.333 1518.69 443.4C1498.69 452.2 1476.95 456.6 1453.49 456.6C1416.42 456.6 1388.95 449.267 1371.09 434.6C1353.49 419.667 1344.69 399.933 1344.69 375.4C1344.69 367.133 1345.75 357.933 1347.89 347.8C1352.95 327 1362.55 308.6 1376.69 292.6C1391.09 276.333 1408.55 263.8 1429.09 255C1449.89 245.933 1472.02 241.4 1495.49 241.4ZM1494.29 277C1488.69 277 1482.69 282.067 1476.29 292.2C1470.15 302.067 1462.82 320.867 1454.29 348.6C1445.75 376.333 1441.49 395.8 1441.49 407C1441.49 412.867 1442.42 416.867 1444.29 419C1446.15 420.867 1448.69 421.8 1451.89 421.8C1457.49 422.333 1463.22 417.533 1469.09 407.4C1475.22 397.267 1482.82 377.533 1491.89 348.2C1500.15 322.333 1504.29 303.533 1504.29 291.8C1504.29 286.2 1503.35 282.333 1501.49 280.2C1499.89 278.067 1497.49 277 1494.29 277ZM1749.99 241.4C1786.25 241.4 1812.92 248.733 1829.99 263.4C1847.32 278.067 1855.99 297.267 1855.99 321C1855.99 329 1854.92 337.933 1852.79 347.8C1847.72 369.667 1838.25 388.867 1824.39 405.4C1810.52 421.667 1793.45 434.333 1773.19 443.4C1753.19 452.2 1731.45 456.6 1707.99 456.6C1670.92 456.6 1643.45 449.267 1625.59 434.6C1607.99 419.667 1599.19 399.933 1599.19 375.4C1599.19 367.133 1600.25 357.933 1602.39 347.8C1607.45 327 1617.05 308.6 1631.19 292.6C1645.59 276.333 1663.05 263.8 1683.59 255C1704.39 245.933 1726.52 241.4 1749.99 241.4ZM1748.79 277C1743.19 277 1737.19 282.067 1730.79 292.2C1724.65 302.067 1717.32 320.867 1708.79 348.6C1700.25 376.333 1695.99 395.8 1695.99 407C1695.99 412.867 1696.92 416.867 1698.79 419C1700.65 420.867 1703.19 421.8 1706.39 421.8C1711.99 422.333 1717.72 417.533 1723.59 407.4C1729.72 397.267 1737.32 377.533 1746.39 348.2C1754.65 322.333 1758.79 303.533 1758.79 291.8C1758.79 286.2 1757.85 282.333 1755.99 280.2C1754.39 278.067 1751.99 277 1748.79 277ZM2012.89 157.4C2041.42 157.4 2062.75 161.8 2076.89 170.6C2091.29 179.133 2098.49 189.667 2098.49 202.2C2098.49 212.333 2094.22 220.2 2085.69 225.8C2077.42 231.133 2066.49 233.8 2052.89 233.8C2040.35 233.8 2030.62 230.733 2023.69 224.6C2016.75 218.467 2013.29 210.867 2013.29 201.8C2013.29 196.2 2015.02 190.333 2018.49 184.2C2010.49 184.2 2003.82 186.2 1998.49 190.2C1993.15 193.933 1989.02 200.467 1986.09 209.8C1984.49 215.667 1983.69 221.133 1983.69 226.2C1983.69 232.6 1984.75 237.667 1986.89 241.4C1989.29 244.867 1992.62 246.6 1996.89 246.6H2020.49C2034.35 246.6 2041.29 250.867 2041.29 259.4C2041.29 260.467 2041.02 262.067 2040.49 264.2C2038.89 270.067 2035.55 274.467 2030.49 277.4C2025.69 280.333 2018.35 281.8 2008.49 281.8H1996.49L1956.89 411.4C1956.09 414.6 1955.69 417.4 1955.69 419.8C1955.69 423.267 1956.35 426.067 1957.69 428.2C1959.02 430.067 1960.89 431.933 1963.29 433.8C1965.15 435.667 1966.49 437.267 1967.29 438.6C1968.09 439.667 1968.22 441.133 1967.69 443C1966.35 446.467 1963.69 449 1959.69 450.6C1955.69 452.2 1949.55 453 1941.29 453H1850.09C1843.15 453 1838.09 451.933 1834.89 449.8C1831.69 447.4 1830.62 444.333 1831.69 440.6C1832.75 437.4 1835.55 434.6 1840.09 432.2C1844.09 430.067 1847.42 427.533 1850.09 424.6C1852.75 421.667 1855.02 417 1856.89 410.6L1888.09 308.2C1889.42 304.2 1890.09 300.067 1890.09 295.8C1890.09 290.467 1888.89 286.333 1886.49 283.4C1884.35 280.2 1881.02 276.733 1876.49 273C1873.55 270.6 1871.29 268.6 1869.69 267C1868.35 265.133 1867.69 263 1867.69 260.6C1867.42 255.533 1869.15 251.933 1872.89 249.8C1876.89 247.667 1884.35 246.6 1895.29 246.6H1905.29C1903.42 239.933 1902.49 233.267 1902.49 226.6C1902.49 219.933 1903.69 213 1906.09 205.8C1911.15 192.2 1921.95 180.733 1938.49 171.4C1955.29 162.067 1980.09 157.4 2012.89 157.4ZM2234.97 241.4C2271.24 241.4 2297.91 248.733 2314.97 263.4C2332.31 278.067 2340.97 297.267 2340.97 321C2340.97 329 2339.91 337.933 2337.77 347.8C2332.71 369.667 2323.24 388.867 2309.37 405.4C2295.51 421.667 2278.44 434.333 2258.17 443.4C2238.17 452.2 2216.44 456.6 2192.97 456.6C2155.91 456.6 2128.44 449.267 2110.57 434.6C2092.97 419.667 2084.17 399.933 2084.17 375.4C2084.17 367.133 2085.24 357.933 2087.37 347.8C2092.44 327 2102.04 308.6 2116.17 292.6C2130.57 276.333 2148.04 263.8 2168.57 255C2189.37 245.933 2211.51 241.4 2234.97 241.4ZM2233.77 277C2228.17 277 2222.17 282.067 2215.77 292.2C2209.64 302.067 2202.31 320.867 2193.77 348.6C2185.24 376.333 2180.97 395.8 2180.97 407C2180.97 412.867 2181.91 416.867 2183.77 419C2185.64 420.867 2188.17 421.8 2191.37 421.8C2196.97 422.333 2202.71 417.533 2208.57 407.4C2214.71 397.267 2222.31 377.533 2231.37 348.2C2239.64 322.333 2243.77 303.533 2243.77 291.8C2243.77 286.2 2242.84 282.333 2240.97 280.2C2239.37 278.067 2236.97 277 2233.77 277ZM2497.87 157.4C2526.41 157.4 2547.74 161.8 2561.87 170.6C2576.27 179.133 2583.47 189.667 2583.47 202.2C2583.47 212.333 2579.21 220.2 2570.67 225.8C2562.41 231.133 2551.47 233.8 2537.87 233.8C2525.34 233.8 2515.61 230.733 2508.67 224.6C2501.74 218.467 2498.27 210.867 2498.27 201.8C2498.27 196.2 2500.01 190.333 2503.47 184.2C2495.47 184.2 2488.81 186.2 2483.47 190.2C2478.14 193.933 2474.01 200.467 2471.07 209.8C2469.47 215.667 2468.67 221.133 2468.67 226.2C2468.67 232.6 2469.74 237.667 2471.87 241.4C2474.27 244.867 2477.61 246.6 2481.87 246.6H2505.47C2519.34 246.6 2526.27 250.867 2526.27 259.4C2526.27 260.467 2526.01 262.067 2525.47 264.2C2523.87 270.067 2520.54 274.467 2515.47 277.4C2510.67 280.333 2503.34 281.8 2493.47 281.8H2481.47L2441.87 411.4C2441.07 414.6 2440.67 417.4 2440.67 419.8C2440.67 423.267 2441.34 426.067 2442.67 428.2C2444.01 430.067 2445.87 431.933 2448.27 433.8C2450.14 435.667 2451.47 437.267 2452.27 438.6C2453.07 439.667 2453.21 441.133 2452.67 443C2451.34 446.467 2448.67 449 2444.67 450.6C2440.67 452.2 2434.54 453 2426.27 453H2335.07C2328.14 453 2323.07 451.933 2319.87 449.8C2316.67 447.4 2315.61 444.333 2316.67 440.6C2317.74 437.4 2320.54 434.6 2325.07 432.2C2329.07 430.067 2332.41 427.533 2335.07 424.6C2337.74 421.667 2340.01 417 2341.87 410.6L2373.07 308.2C2374.41 304.2 2375.07 300.067 2375.07 295.8C2375.07 290.467 2373.87 286.333 2371.47 283.4C2369.34 280.2 2366.01 276.733 2361.47 273C2358.54 270.6 2356.27 268.6 2354.67 267C2353.34 265.133 2352.67 263 2352.67 260.6C2352.41 255.533 2354.14 251.933 2357.87 249.8C2361.87 247.667 2369.34 246.6 2380.27 246.6H2390.27C2388.41 239.933 2387.47 233.267 2387.47 226.6C2387.47 219.933 2388.67 213 2391.07 205.8C2396.14 192.2 2406.94 180.733 2423.47 171.4C2440.27 162.067 2465.07 157.4 2497.87 157.4ZM2905.56 225C2905.56 234.6 2903.42 242.867 2899.16 249.8C2895.16 256.733 2889.96 262.067 2883.56 265.8C2877.16 269.267 2870.76 271 2864.36 271C2857.96 271 2852.09 269.667 2846.76 267C2841.69 264.333 2837.42 260.733 2833.96 256.2L2737.56 418.6C2730.36 430.867 2723.69 439.667 2717.56 445C2711.42 450.333 2704.49 453 2696.76 453C2688.49 453 2681.82 450.333 2676.76 445C2671.96 439.4 2668.49 430.6 2666.36 418.6L2632.76 233.8C2631.96 229 2630.49 225.133 2628.36 222.2C2626.22 219.267 2623.42 216.067 2619.96 212.6C2617.29 210.2 2615.42 208.333 2614.36 207C2613.29 205.4 2612.76 203.533 2612.76 201.4C2611.42 191.533 2617.29 186.6 2630.36 186.6H2730.36C2736.49 186.6 2741.16 187.933 2744.36 190.6C2747.56 193 2749.02 196.333 2748.76 200.6C2748.76 203 2748.22 205 2747.16 206.6C2746.36 208.2 2744.89 210.2 2742.76 212.6C2740.36 215.267 2738.49 217.8 2737.16 220.2C2735.82 222.6 2735.16 225.533 2735.16 229C2735.16 230.6 2735.29 231.933 2735.56 233L2750.76 326.2L2803.96 231.8C2813.29 214.733 2822.49 202.733 2831.56 195.8C2840.62 188.6 2851.82 185 2865.16 185C2877.42 185 2887.16 188.6 2894.36 195.8C2901.82 202.733 2905.56 212.467 2905.56 225ZM2955.72 241.4C2971.18 241.4 2982.52 244.333 2989.72 250.2C2996.92 256.067 3000.52 264.067 3000.52 274.2C3000.52 280.333 2999.58 286.2 2997.72 291.8L2960.92 411.4C2960.12 414.6 2959.72 417.4 2959.72 419.8C2959.72 423.267 2960.38 426.067 2961.72 428.2C2963.05 430.067 2964.92 431.933 2967.32 433.8C2969.18 435.667 2970.52 437.267 2971.32 438.6C2972.12 439.667 2972.25 441.133 2971.72 443C2970.38 446.467 2967.72 449 2963.72 450.6C2959.72 452.2 2953.58 453 2945.32 453H2854.12C2847.18 453 2842.12 451.933 2838.92 449.8C2835.72 447.4 2834.65 444.333 2835.72 440.6C2836.78 437.4 2839.58 434.6 2844.12 432.2C2848.12 430.067 2851.45 427.533 2854.12 424.6C2856.78 421.667 2859.05 417 2860.92 410.6L2895.72 295C2896.52 292.6 2896.92 290.6 2896.92 289C2896.92 286.067 2896.25 283.8 2894.92 282.2C2893.58 280.333 2891.58 278.467 2888.92 276.6C2886.25 274.467 2884.38 272.6 2883.32 271C2882.25 269.4 2882.12 267.267 2882.92 264.6C2884.52 258.467 2892.92 253.133 2908.12 248.6C2923.32 243.8 2939.18 241.4 2955.72 241.4ZM2982.52 153C2992.92 153 3001.58 156.467 3008.52 163.4C3015.45 170.067 3018.92 178.333 3018.92 188.2C3018.92 195.133 3017.05 201.933 3013.32 208.6C3009.85 215.267 3004.78 220.733 2998.12 225C2991.72 229 2984.52 231 2976.52 231C2966.38 231 2957.85 227.667 2950.92 221C2944.25 214.067 2940.78 205.533 2940.52 195.4C2940.52 188.733 2942.25 182.2 2945.72 175.8C2949.18 169.133 2954.12 163.667 2960.52 159.4C2966.92 155.133 2974.25 153 2982.52 153ZM3193 239.8C3212.73 239.8 3228.47 246.867 3240.2 261C3252.2 275.133 3258.2 293.8 3258.2 317C3258.2 329 3256.73 340.733 3253.8 352.2C3245.27 386.6 3230.6 412.6 3209.8 430.2C3189.27 447.8 3165.53 456.6 3138.6 456.6C3123.4 456.6 3110.2 454.067 3099 449C3088.07 443.667 3079.27 436.2 3072.6 426.6L3058.2 439C3052.6 443.8 3047.13 447.4 3041.8 449.8C3036.47 451.933 3030.33 453 3023.4 453H3005.8C2999.13 453 2993.93 451.667 2990.2 449C2986.73 446.067 2985 441.933 2985 436.6C2985 434.2 2985.4 431.4 2986.2 428.2L3053 211C3053.8 208.6 3054.2 206.6 3054.2 205C3054.2 200.467 3051.4 196.2 3045.8 192.2C3043.13 189.8 3041.27 187.933 3040.2 186.6C3039.13 185 3039 183 3039.8 180.6C3041.67 174.467 3050.07 169.133 3065 164.6C3080.2 159.8 3096.07 157.4 3112.6 157.4C3128.07 157.4 3139.4 160.467 3146.6 166.6C3154.07 172.467 3157.8 180.467 3157.8 190.6C3157.8 196.2 3156.87 201.8 3155 207.4L3138.2 261.8C3153.67 247.133 3171.93 239.8 3193 239.8ZM3147.8 349.8C3153.13 331.667 3155.8 317 3155.8 305.8C3155.8 293.533 3152.2 287.4 3145 287.4C3138.6 287.4 3132.6 290.733 3127 297.4L3101 382.2L3098.6 389.8C3097.27 393.8 3096.6 397.933 3096.6 402.2C3096.6 411.533 3101 416.2 3109.8 416.2C3116.2 416.2 3122.33 411.533 3128.2 402.2C3134.07 392.867 3140.6 375.4 3147.8 349.8ZM3387.3 239.4C3421.17 239.4 3445.7 244.867 3460.9 255.8C3476.1 266.467 3483.7 280.2 3483.7 297C3483.7 302.067 3483.17 306.733 3482.1 311C3478.1 328.6 3466.9 341.267 3448.5 349C3430.37 356.467 3408.9 360.2 3384.1 360.2C3371.57 360.2 3359.84 359.4 3348.9 357.8C3348.64 371.667 3352.37 381.4 3360.1 387C3367.84 392.6 3378.64 395.4 3392.5 395.4C3398.9 395.4 3405.04 394.733 3410.9 393.4C3416.77 391.8 3424.24 389.533 3433.3 386.6C3440.77 383.933 3445.84 382.6 3448.5 382.6C3451.44 382.6 3452.9 384.333 3452.9 387.8C3453.17 397.133 3449.7 407 3442.5 417.4C3435.3 427.533 3424.64 436.2 3410.5 443.4C3396.37 450.6 3379.3 454.2 3359.3 454.2C3329.7 454.2 3305.44 446.733 3286.5 431.8C3267.57 416.867 3258.1 395.133 3258.1 366.6C3258.1 358.6 3259.17 349.267 3261.3 338.6C3267.97 305.8 3282.5 281.133 3304.9 264.6C3327.57 247.8 3355.04 239.4 3387.3 239.4ZM3351.7 333.8C3352.77 334.067 3354.24 334.2 3356.1 334.2C3367.3 334.2 3375.84 329 3381.7 318.6C3387.57 308.2 3390.37 296.6 3390.1 283.8C3389.84 276.333 3387.7 272.6 3383.7 272.6C3380.77 272.6 3377.3 275 3373.3 279.8C3369.3 284.333 3365.3 291.267 3361.3 300.6C3357.57 309.933 3354.37 321 3351.7 333.8ZM3599.13 237.8C3621.26 237.8 3640.33 239.8 3656.33 243.8C3672.6 247.8 3685 253.4 3693.53 260.6C3702.33 267.8 3706.73 275.933 3706.73 285C3706.73 294.333 3703 301.933 3695.53 307.8C3688.33 313.667 3678.2 316.6 3665.13 316.6C3651.8 316.6 3640.46 313.267 3631.13 306.6C3622.06 299.933 3617.53 291.533 3617.53 281.4C3617.53 277.933 3618.06 274.6 3619.13 271.4C3614.33 270.067 3610.06 269.4 3606.33 269.4C3599.66 269.4 3594.06 271 3589.53 274.2C3585.26 277.4 3583.26 281.933 3583.53 287.8C3583.53 294.733 3587 300.6 3593.93 305.4C3600.86 310.2 3612.06 316.2 3627.53 323.4C3640.86 329.267 3651.8 334.733 3660.33 339.8C3669.13 344.6 3676.46 350.733 3682.33 358.2C3688.46 365.667 3691.53 374.467 3691.53 384.6C3691.53 386.733 3691 390.733 3689.93 396.6C3685.66 414.467 3673.8 428.6 3654.33 439C3634.86 449.4 3609.26 454.6 3577.53 454.6C3541.8 454.6 3513.4 449.8 3492.33 440.2C3471.53 430.6 3461.13 417.4 3461.13 400.6C3461.13 389.133 3464.6 380.467 3471.53 374.6C3478.46 368.733 3487.66 365.8 3499.13 365.8C3512.46 365.8 3523.8 369.933 3533.13 378.2C3542.73 386.467 3547.53 397 3547.53 409.8C3547.53 413.267 3547.13 416.867 3546.33 420.6C3552.73 422.2 3558.86 423 3564.73 423C3571.66 423 3577.4 421.133 3581.93 417.4C3586.46 413.667 3588.73 408.467 3588.73 401.8C3588.46 395.667 3585.4 390.467 3579.53 386.2C3573.66 381.667 3564.33 376.333 3551.53 370.2C3539.53 364.6 3529.66 359.4 3521.93 354.6C3514.2 349.533 3507.53 343.267 3501.93 335.8C3496.6 328.333 3493.93 319.533 3493.93 309.4C3493.93 287.533 3503 270.2 3521.13 257.4C3539.53 244.333 3565.53 237.8 3599.13 237.8Z" fill="white"/>
</svg>
